# xmcd
#
# Track frame offsets:
#	150
#	16312
#	34379
#	49529
#	67596
#	88424
#	108711
#	125015
#	142783
#	160439
#	173311
#	189466
#	209826
#	228076
#
# Disc length: 3190 seconds
#
# Revision: 0
# Processed by: cddbd v1.5.2PL0 Copyright (c) Steve Scherf et al.
# Submitted via: EasyCDDAExtractor 2010.6.0.0
#
DISCID=bb0c740e
DTITLE=Various Artist - Mr Music Country  11 2011
DYEAR=2011
DGENRE=Country
TTITLE0=Vince Gill - Cinderella
TTITLE1=Sara Evans - A real fine place to start
TTITLE2=Lonestar - Tequila talkin'
TTITLE3=Mary Chapin Carpenter - He thinks he'll keep her
TTITLE4=Brad Paisley - American Saturday night
TTITLE5=Willie Nelson - Angel flying too close to the ground
TTITLE6=Waylon Jennings - Wild ones
TTITLE7=Rosanne Cash - Runaway train
TTITLE8=Montgomery Gentry - Roll with me
TTITLE9=Restless Heart - Mending fences
TTITLE10=Charlie Daniels Band - The devil went down to Georgia
TTITLE11=Patty Loveless - Lonely too long
TTITLE12=Keith Whitley - It ain't nothin'
TTITLE13=Johnny Cash - Without love
EXTD=
EXTT0=
EXTT1=
EXTT2=
EXTT3=
EXTT4=
EXTT5=
EXTT6=
EXTT7=
EXTT8=
EXTT9=
EXTT10=
EXTT11=
EXTT12=
EXTT13=
PLAYORDER=
